#define hand_width 40
#define hand_height 40
#define hand_x_hot 4
#define hand_y_hot 4
static unsigned char hand_bits[] = {
   0x00, 0x00, 0x00, 0x00, 0x00, 0x00, 0x00, 0x00, 0x00, 0x00, 0x7c, 0x00,
   0x00, 0x00, 0x00, 0xfc, 0x00, 0x00, 0x00, 0x00, 0x8c, 0x03, 0x00, 0x00,
   0x00, 0x8c, 0x03, 0x00, 0x00, 0x00, 0x0c, 0x07, 0x00, 0x00, 0x00, 0x18,
   0x0f, 0x00, 0x00, 0x00, 0x38, 0xcc, 0xf3, 0x03, 0x00, 0x30, 0xdc, 0xfb,
   0x03, 0x00, 0x30, 0xf8, 0x3e, 0x3f, 0x00, 0x70, 0xf0, 0x3c, 0x7e, 0x00,
   0xe0, 0xc0, 0x30, 0xcc, 0x00, 0xc0, 0xc0, 0x30, 0xcc, 0x00, 0xc0, 0x01,
   0x00, 0xc0, 0x03, 0xc0, 0x03, 0x00, 0x00, 0x03, 0x00, 0x03, 0x00, 0x00,
   0x03, 0x00, 0x03, 0x00, 0x00, 0x03, 0xfc, 0x0f, 0x00, 0x00, 0x03, 0xfe,
   0x0f, 0x00, 0x00, 0x03, 0x03, 0x0f, 0x00, 0x00, 0x03, 0x03, 0x0e, 0x00,
   0x00, 0x03, 0x0f, 0x00, 0x00, 0x00, 0x03, 0x0f, 0x00, 0x00, 0x00, 0x03,
   0xf0, 0x00, 0x00, 0x00, 0x03, 0xf0, 0x01, 0x00, 0x00, 0x03, 0x00, 0x0f,
   0x00, 0x00, 0x03, 0x00, 0x0f, 0x00, 0x00, 0x03, 0x00, 0x30, 0x00, 0x00,
   0x00, 0x00, 0x30, 0x00, 0x00, 0x00, 0x00, 0xc0, 0x00, 0x00, 0x00, 0x00,
   0xc0, 0x00, 0x00, 0x00, 0x00, 0x00, 0x00, 0x00, 0x00, 0x00, 0x00, 0x00,
   0x00, 0x00, 0x00, 0x00, 0x00, 0x00, 0x00, 0x00, 0x00, 0x00, 0x00, 0x00,
   0x00, 0x00, 0x00, 0x00, 0x00, 0x00, 0x00, 0x00, 0x00, 0x00, 0x00, 0x00,
   0x00, 0x00, 0x00, 0x00, 0x00, 0x00, 0x00, 0x00 };
